<svg width="64" height="97" viewBox="0 0 64 97" fill="none" xmlns="http://www.w3.org/2000/svg">
<path fill-rule="evenodd" clip-rule="evenodd" d="M4.65459 0C4.05122 3.96499 3.20651 13.4723 4.65459 19.7818C6.10267 26.0913 14.1361 29.0478 17.9718 29.7374C18.3165 29.7805 19.2388 30.0994 20.1698 31.0303C21.1006 31.9612 22.4969 33.2712 23.0141 33.7454V43.4424L23.0141 77.1879L23.0142 77.1879V81.5839H2.76701C3.32221 82.7078 3.95363 83.7873 4.65451 84.8157V84.6869H49.2186C49.9907 83.5399 50.6768 82.33 51.2675 81.0667H30.0155C29.5029 81.8475 28.643 82.3596 27.6687 82.3596C26.0977 82.3596 24.8242 81.0283 24.8242 79.3859C24.8242 77.7436 26.0977 76.4122 27.6687 76.4122C28.5308 76.4122 29.3034 76.8132 29.825 77.4465H52.6501C53.0035 76.2716 53.2786 75.0629 53.4696 73.8263H30.5131H26.3757L26.3757 42.8007L26.3757 21.8506C29.6436 21.8556 30.3818 22.0539 32.4514 22.6097C32.7622 22.6932 33.103 22.7847 33.4869 22.8849C35.8659 23.5055 38.4 23.04 39.9516 22.1091C44.6061 19.3164 47.2782 14.9118 49.0021 11.3778C43.872 12.9857 41.2812 13.0066 39.0278 13.0248C37.476 13.0373 36.0842 13.0485 34.1334 13.5758C31.5067 14.2857 29.3064 18.1441 28.5738 20.1697C30.4356 20.48 36.0728 18.8337 38.6586 17.9717C33.2993 21.0053 28.3271 21.1556 26.3757 20.8387V13.3172L23.0141 14.2222V31.806C18.5319 28.5736 9.25741 20.3765 8.53338 13.4465C10.8176 17.4977 16.3427 26.143 20.1698 28.3152C23.5314 16.9374 18.6182 12.4121 12.9293 9.1798C8.37823 6.59394 5.51654 1.98249 4.65459 0ZM64 25.2122C43.4356 17.9541 38.8292 29.2572 36.627 34.6609C36.4754 35.0328 36.3352 35.3768 36.202 35.6849L33.3576 38.5293V28.0444L30.5131 27.1515L30.5131 43.0374L30.5131 70.2061H53.781C53.7843 70.0341 53.7859 69.8616 53.7859 69.6888C53.7859 58.601 47.0758 49.0805 37.495 44.9664V63.8983C37.9759 64.4309 38.2708 65.1492 38.2708 65.9394C38.2708 67.5818 36.9973 68.9132 35.4263 68.9132C33.8554 68.9132 32.5819 67.5818 32.5819 65.9394C32.5819 65.1493 32.8767 64.4311 33.3576 63.8985V43.5779L33.3576 40.598C39.1499 31.9095 45.6404 29.4788 50.0364 28.4445C44.3475 31.0303 40.3394 33.3576 37.7535 36.7192C42.796 40.8566 46.5933 39.9516 53.6566 32.3233C59.1242 26.4182 62.4916 25.3845 64 25.2122ZM26.8929 96.5818C19.5275 96.5818 12.8537 93.6208 7.99682 88.8243H45.7891C40.9322 93.6208 34.2584 96.5818 26.8929 96.5818ZM18.8767 44.0109L18.8767 77.1879L1.05946 77.1879C0.790413 76.2595 0.570063 75.3104 0.401355 74.3435H13.082C13.5875 74.8254 14.2599 75.1192 14.9979 75.1192C16.5689 75.1192 17.8424 73.7878 17.8424 72.1455C17.8424 70.5031 16.5689 69.1718 14.9979 69.1718C14.2599 69.1718 13.5875 69.4656 13.082 69.9475H0.00121859C0.000406799 69.8614 0 69.7751 0 69.6888C0 57.6281 7.9393 47.4217 18.8767 44.0109ZM36.9778 65.8101C36.9778 66.667 36.2832 67.3617 35.4263 67.3617C34.5694 67.3617 33.8748 66.667 33.8748 65.8101C33.8748 64.9533 34.5694 64.2586 35.4263 64.2586C36.2832 64.2586 36.9778 64.9533 36.9778 65.8101ZM16.5495 72.2748C16.5495 73.1317 15.8549 73.8263 14.998 73.8263C14.1411 73.8263 13.4465 73.1317 13.4465 72.2748C13.4465 71.4179 14.1411 70.7233 14.998 70.7233C15.8549 70.7233 16.5495 71.4179 16.5495 72.2748ZM27.6687 81.0667C28.5256 81.0667 29.2202 80.3721 29.2202 79.5152C29.2202 78.6583 28.5256 77.9637 27.6687 77.9637C26.8118 77.9637 26.1172 78.6583 26.1172 79.5152C26.1172 80.3721 26.8118 81.0667 27.6687 81.0667Z" fill="#5ABF1B"/>
</svg>
