<svg width="137" height="40" viewBox="0 0 137 40" fill="none" xmlns="http://www.w3.org/2000/svg">
<path fill-rule="evenodd" clip-rule="evenodd" d="M18.0044 18.409C17.7553 18.409 17.5183 18.4451 17.2875 18.5233C17.0596 18.6015 16.8531 18.7158 16.6678 18.8661C16.4825 19.0165 16.3275 19.1879 16.206 19.3834C16.0815 19.5789 15.9934 19.7684 15.9357 19.9489C15.878 20.1323 15.8203 20.388 15.7625 20.7128H19.8239C19.8331 20.5745 19.8361 20.4571 19.8361 20.3579C19.8361 19.9368 19.7602 19.5729 19.6083 19.2722C19.4564 18.9714 19.2407 18.7518 18.9582 18.6165C18.6727 18.4781 18.3567 18.409 18.0044 18.409ZM49.5781 15.5669C49.8728 15.5669 50.2009 15.609 50.5623 15.6902C50.5715 16.5744 50.5927 17.3082 50.6231 17.8827L50.7112 19.7624C50.2586 19.63 49.8364 19.5669 49.4445 19.5669C48.9524 19.5669 48.5271 19.6361 48.1717 19.7804C47.8132 19.9218 47.4973 20.1353 47.2239 20.424C46.9475 20.7127 46.7288 21.0737 46.5648 21.5037C46.4007 21.9338 46.2853 22.6165 46.2215 23.5519C46.1547 24.4872 46.1212 25.5549 46.1212 26.7579C46.1212 27.1789 46.1395 27.7052 46.1729 28.3308C45.374 28.3127 44.5751 28.3038 43.7701 28.3038C42.9712 28.3038 42.1176 28.3127 41.2063 28.3308L41.589 22.9173L41.7105 19.8105C41.7197 19.2481 41.7227 18.6766 41.7227 18.0902C41.7227 17.4977 41.7136 16.7639 41.6984 15.8857C42.6917 15.9008 43.4785 15.9097 44.0617 15.9097C44.7422 15.9097 45.5289 15.9008 46.4129 15.8857L46.3612 17.2631C46.6832 16.9052 46.9445 16.6376 47.151 16.4631C47.3576 16.2887 47.5915 16.1293 47.8527 15.9879C48.117 15.8466 48.3904 15.7414 48.679 15.6722C48.9645 15.603 49.2653 15.5669 49.5781 15.5669ZM33.773 15.5669C34.7421 15.5669 35.629 15.6752 36.434 15.8917C37.239 16.1053 37.8678 16.4541 38.3174 16.9323C38.77 17.4135 38.9948 18.0992 38.9948 18.9924C38.9948 19.4466 38.9341 20.4722 38.8126 22.0632C38.688 23.6572 38.5938 25.7443 38.53 28.3308C37.7251 28.3127 36.9231 28.3038 36.1273 28.3038C35.3557 28.3038 34.5324 28.3127 33.6637 28.3308C33.776 27.4346 33.9006 25.591 34.0343 22.797C33.7244 22.9413 33.4814 23.0466 33.3052 23.1128C33.129 23.179 32.8192 23.2752 32.3787 23.4045C31.9352 23.5368 31.5889 23.6451 31.3398 23.7353C31.0908 23.8225 30.872 23.9368 30.6898 24.0752C30.5045 24.2135 30.3738 24.3549 30.2949 24.5022C30.2189 24.6496 30.1794 24.812 30.1794 24.9895C30.1794 25.2662 30.2888 25.5007 30.5105 25.6962C30.7323 25.8917 31.0847 25.9879 31.5707 25.9879C31.7439 25.9879 31.9261 25.9759 32.1236 25.9459C32.321 25.9188 32.5914 25.8466 32.9377 25.7323C32.6977 26.3579 32.4152 27.2721 32.0871 28.4751C31.3824 28.5894 30.7141 28.6466 30.0792 28.6466C29.0616 28.6466 28.2141 28.5053 27.5397 28.2256C26.8623 27.9459 26.3398 27.4917 25.9753 26.8662C25.6107 26.2406 25.4285 25.615 25.4285 24.9895C25.4285 24.6075 25.4953 24.2346 25.629 23.8677C25.7657 23.5038 25.9753 23.1459 26.2638 22.797C26.5524 22.4451 26.8866 22.1474 27.2724 21.9008C27.6582 21.6511 28.1867 21.4195 28.855 21.2C29.5233 20.9804 30.3708 20.7729 31.3945 20.5774C31.8228 20.4962 32.2147 20.409 32.5701 20.3158C32.9285 20.2226 33.1807 20.1413 33.3326 20.0722C33.4844 20.003 33.609 19.9218 33.7031 19.8285C33.7973 19.7353 33.8642 19.6361 33.9067 19.5368C33.9462 19.4346 33.9674 19.3263 33.9674 19.212C33.9674 18.9022 33.8368 18.6646 33.5725 18.4992C33.3113 18.3338 32.9255 18.2496 32.4182 18.2496C31.0057 18.2496 29.2621 18.6436 27.1873 19.4316C27.3422 18.6286 27.4425 18.0722 27.482 17.7684C27.5245 17.4647 27.5883 16.9865 27.6794 16.3368C30.0427 15.8226 32.075 15.5669 33.773 15.5669ZM17.977 15.5669C18.9126 15.5669 19.8057 15.6752 20.6563 15.8917C21.5068 16.1053 22.2267 16.4812 22.8161 17.0196C23.4084 17.5549 23.8276 18.1594 24.0798 18.8331C24.3288 19.5098 24.4534 20.2375 24.4534 21.0165C24.4534 21.4796 24.4017 21.997 24.2924 22.5654L15.6623 22.5774C15.6562 22.7068 15.6501 22.824 15.6501 22.9293C15.6501 23.8015 15.9661 24.4451 16.5979 24.8571C17.2328 25.2721 18.0044 25.4767 18.9126 25.4767C19.4564 25.4767 20.073 25.4135 20.7656 25.2872C21.4612 25.1639 22.3149 24.9503 23.3325 24.6496C23.2262 25.1368 23.0226 26.3158 22.7189 28.1834C21.765 28.3699 20.9661 28.4932 20.316 28.5564C19.669 28.6165 19.0129 28.6466 18.3476 28.6466C17.3695 28.6466 16.4734 28.5805 15.6501 28.4451C14.83 28.3128 14.1222 28.0752 13.5268 27.7323C12.9314 27.3925 12.4332 26.9684 12.0322 26.4601C11.6313 25.9519 11.3245 25.3503 11.1149 24.6526C10.9053 23.9549 10.802 23.2361 10.802 22.4962C10.802 21.4586 11.0116 20.4421 11.4277 19.4466C11.8469 18.4511 12.3876 17.6751 13.0468 17.1157C13.709 16.5533 14.4685 16.1564 15.3312 15.9218C16.1939 15.6872 17.0748 15.5669 17.977 15.5669ZM58.3753 12.6316C58.3176 13.6962 58.2781 14.8421 58.2508 16.0691H61.0606C60.9938 17.7594 60.9604 18.8752 60.9604 19.4195H58.1293L57.9804 22.4661C57.9622 22.9233 57.9561 23.2151 57.9561 23.3444C57.9561 23.7354 57.9986 24.0602 58.0837 24.3188C58.1718 24.5805 58.3237 24.7669 58.5393 24.8812C58.758 24.9925 58.998 25.0496 59.2623 25.0496C59.4567 25.0496 59.6633 25.0375 59.8759 25.0075C60.0916 24.9804 60.4683 24.8932 61.009 24.7459C60.8632 25.4286 60.7356 26.0962 60.6293 26.7458L60.3589 28.2316C59.5448 28.412 58.91 28.5233 58.4543 28.5744C57.9987 28.6225 57.5582 28.6466 57.1329 28.6466C56.4342 28.6466 55.8145 28.5864 55.2738 28.4691C54.7301 28.3518 54.2805 28.1353 53.919 27.8225C53.5575 27.5098 53.3115 27.1518 53.1808 26.7458C53.0502 26.3398 52.9834 25.9067 52.9834 25.4526C52.9834 25.3714 52.9864 25.227 52.9955 25.0195C53.0047 24.812 53.032 24.3519 53.0806 23.6361L53.351 19.4195H51.4312C51.4737 18.8602 51.5101 18.1203 51.5436 17.2L51.58 16.0691H53.6183C53.6699 15.6932 53.7307 14.8782 53.8036 13.618L55.9118 13.191C56.2975 13.1188 57.1177 12.9323 58.3753 12.6316ZM63.2751 11.6932C64.314 11.7082 65.1646 11.7173 65.8207 11.7173C66.7077 11.7173 67.5431 11.7082 68.3298 11.6932L68.0747 14.6406C68.0352 15.1278 67.9683 16.1173 67.8802 17.603C68.1506 17.2631 68.3724 17.0075 68.5455 16.8421C68.7156 16.6737 68.907 16.5203 69.1166 16.3789C69.3262 16.2376 69.5388 16.1173 69.7576 16.018C69.9732 15.9218 70.2254 15.8375 70.5079 15.7624C70.7904 15.6902 71.1002 15.6331 71.4435 15.591C71.7837 15.5519 72.133 15.5308 72.4945 15.5308C73.1902 15.5308 73.8676 15.609 74.5176 15.7624C75.1707 15.9187 75.7266 16.1865 76.1853 16.5744C76.644 16.9594 76.9569 17.3894 77.1209 17.8646C77.285 18.3398 77.367 18.8632 77.367 19.4316C77.367 19.6511 77.3609 19.9428 77.3487 20.3037C77.3366 20.6646 77.3093 21.1218 77.2698 21.6752L76.9994 25.7834C76.966 26.2947 76.9478 26.7188 76.9447 27.0556C76.9387 27.3925 76.9387 27.8165 76.9387 28.3308C76.0851 28.3127 75.2679 28.3038 74.4872 28.3038C73.6093 28.3038 72.7163 28.3127 71.8141 28.3308C71.9538 27.2481 72.0753 26.003 72.1816 24.5925C72.2879 23.1849 72.3396 22.1323 72.3396 21.4436C72.3396 20.6797 72.1786 20.1413 71.8536 19.8346C71.5285 19.5248 71.1002 19.3714 70.5656 19.3714C70.0887 19.3714 69.6664 19.4676 69.2958 19.6631C68.9678 19.8345 68.6792 20.0992 68.4331 20.4571C68.2205 20.7549 68.0443 21.191 67.9046 21.7594C67.7405 22.4511 67.6129 23.4707 67.5218 24.818C67.4732 25.5669 67.4246 26.7368 67.376 28.3308C66.5498 28.3127 65.7751 28.3038 65.0522 28.3038C64.3231 28.3038 63.4422 28.3127 62.4094 28.3308C62.54 27.1188 62.6342 26.1233 62.6919 25.3443C62.8073 23.7113 62.9288 21.8135 63.0503 19.6511C63.1263 18.2226 63.1809 16.8481 63.2174 15.5308C63.2538 14.2165 63.2751 12.9353 63.2751 11.6932Z" fill="#5ABF1B"/>
<path fill-rule="evenodd" clip-rule="evenodd" d="M78.6063 20.1624C79.7698 20.1955 80.8694 20.2105 81.9052 20.2105C82.9563 20.2105 84.059 20.1955 85.2163 20.1624C85.1191 21.215 85.0554 22.3459 85.0311 23.5519C83.8676 23.5278 82.7619 23.5158 81.72 23.5158C80.678 23.5158 79.5784 23.5278 78.421 23.5519C78.5182 22.3699 78.582 21.2391 78.6063 20.1624Z" fill="#5ABF1B"/>
<path fill-rule="evenodd" clip-rule="evenodd" d="M101.899 19.1518C101.374 19.1518 100.906 19.2842 100.496 19.5549C100.086 19.8225 99.7761 20.2135 99.5665 20.7308C99.3569 21.2451 99.2536 21.8075 99.2536 22.418C99.2536 23.3113 99.4784 23.997 99.928 24.4722C100.381 24.9474 100.946 25.1849 101.629 25.1849C102.146 25.1849 102.61 25.0496 103.02 24.7759C103.43 24.5052 103.74 24.1023 103.95 23.5699C104.159 23.0376 104.263 22.4661 104.263 21.8586C104.263 21.3533 104.181 20.8992 104.017 20.4932C103.853 20.0872 103.582 19.7624 103.209 19.5157C102.838 19.2721 102.401 19.1518 101.899 19.1518ZM101.985 15.5669C103.002 15.5669 103.98 15.7233 104.922 16.0301C105.861 16.3398 106.656 16.7849 107.304 17.3654C107.951 17.9458 108.43 18.6255 108.737 19.4015C109.044 20.1774 109.199 21.0135 109.199 21.9068C109.199 22.7759 109.062 23.603 108.786 24.388C108.513 25.1699 108.048 25.9067 107.389 26.5924C106.732 27.2782 105.897 27.7925 104.886 28.1353C103.871 28.4752 102.799 28.6466 101.666 28.6466C100.624 28.6466 99.6212 28.4962 98.6613 28.1955C97.7014 27.8947 96.8994 27.4557 96.2554 26.8782C95.6114 26.3008 95.1254 25.612 94.8003 24.806C94.4784 24.003 94.3143 23.1579 94.3143 22.2707C94.3143 21.3865 94.4723 20.5414 94.7882 19.7354C95.1041 18.9323 95.6053 18.2075 96.2919 17.5669C96.9753 16.9263 97.8229 16.4301 98.8344 16.0872C99.8429 15.7413 100.894 15.5669 101.985 15.5669ZM110.28 11.6932C112.61 11.7082 115.326 11.7173 118.428 11.7173L121.468 11.7052H124.421L126.022 11.6932L125.946 12.8872C125.915 13.5248 125.891 14.0541 125.879 14.4751C125.867 14.8932 125.861 15.209 125.861 15.4225C124.105 15.3323 122.659 15.2872 121.52 15.2872H120.657C120.533 16.7218 120.439 18.0481 120.372 19.2662C120.284 21.0105 120.211 22.7037 120.162 24.3458C120.113 25.9879 120.089 27.3143 120.089 28.3308C118.743 28.3127 117.875 28.3038 117.48 28.3038C117.127 28.3038 116.183 28.3127 114.652 28.3308C115.059 24.3789 115.302 20.0331 115.384 15.2872L110.144 15.4225L110.205 14.0692C110.238 13.3443 110.262 12.5533 110.28 11.6932ZM87.0482 11.6932C88.485 11.7082 89.448 11.7173 89.931 11.7173C90.1527 11.7173 91.0367 11.7082 92.5798 11.6932C92.434 13.5217 92.3125 15.2511 92.2213 16.8842C92.1059 19.1609 92.0239 21.2872 91.9753 23.2662C91.9267 25.2451 91.9024 26.9323 91.9024 28.3308L89.3781 28.3038C88.886 28.3038 87.8775 28.3127 86.3525 28.3308C86.8234 21.8045 87.0603 16.782 87.0603 13.2632L87.0482 11.6932Z" fill="#5ABF1B"/>
</svg>
